{
  "accessors": [
    {
      "bufferView": 2,
      "componentType": 5126,
      "count": 65532,
      "max": [
        0.5541599988937378,
        0.6428999900817871,
        0.796280026435852
      ],
      "min": [
        -0.5174999833106995,
        -0.350629985332489,
        -0.010529999621212482
      ],
      "type": "VEC3"
    },
    {
      "bufferView": 2,
      "byteOffset": 786384,
      "componentType": 5126,
      "count": 65532,
      "max": [
        0.9999436736106873,
        0.999933660030365,
        1.0
      ],
      "min": [
        -0.9999990463256836,
        -0.999980628490448,
        -0.9783313870429993
      ],
      "type": "VEC3"
    },
    {
      "bufferView": 1,
      "componentType": 5126,
      "count": 65532,
      "max": [
        0.9977350234985352,
        0.991536021232605
      ],
      "min": [
        0.01620600000023842,
        0.3760719895362854
      ],
      "type": "VEC2"
    },
    {
      "bufferView": 0,
      "componentType": 5125,
      "count": 336816,
      "type": "SCALAR"
    },
    {
      "bufferView": 2,
      "byteOffset": 1572768,
      "componentType": 5126,
      "count": 65532,
      "max": [
        0.5541599988937378,
        0.5750799775123596,
        0.7726799845695496
      ],
      "min": [
        -0.5174999833106995,
        -0.34084001183509827,
        -0.005350000225007534
      ],
      "type": "VEC3"
    },
    {
      "bufferView": 2,
      "byteOffset": 2359152,
      "componentType": 5126,
      "count": 65532,
      "max": [
        0.9999949336051941,
        0.9999935626983643,
        1.0
      ],
      "min": [
        -0.9999851584434509,
        -0.9999714493751526,
        -0.9258142709732056
      ],
      "type": "VEC3"
    },
    {
      "bufferView": 1,
      "byteOffset": 524256,
      "componentType": 5126,
      "count": 65532,
      "max": [
        0.9215649962425232,
        0.9916409850120544
      ],
      "min": [
        0.0021009999327361584,
        0.6407189965248108
      ],
      "type": "VEC2"
    },
    {
      "bufferView": 0,
      "byteOffset": 1347264,
      "componentType": 5125,
      "count": 362817,
      "type": "SCALAR"
    },
    {
      "bufferView": 2,
      "byteOffset": 3145536,
      "componentType": 5126,
      "count": 41603,
      "max": [
        0.5541599988937378,
        0.6428999900817871,
        0.7958899736404419
      ],
      "min": [
        -0.5174999833106995,
        -0.350629985332489,
        -0.0075900000520050526
      ],
      "type": "VEC3"
    },
    {
      "bufferView": 2,
      "byteOffset": 3644772,
      "componentType": 5126,
      "count": 41603,
      "max": [
        0.9999613761901855,
        0.999878466129303,
        1.0
      ],
      "min": [
        -0.9999376535415649,
        -0.9999797940254211,
        -0.8390674591064453
      ],
      "type": "VEC3"
    },
    {
      "bufferView": 1,
      "byteOffset": 1048512,
      "componentType": 5126,
      "count": 41603,
      "max": [
        0.9956160187721252,
        0.9913889765739441
      ],
      "min": [
        0.0020920000970363617,
        0.24582399427890778
      ],
      "type": "VEC2"
    },
    {
      "bufferView": 0,
      "byteOffset": 2798532,
      "componentType": 5125,
      "count": 222018,
      "type": "SCALAR"
    }
  ],
  "asset": {
    "extras": {
      "author": "mujahidjohar (https://sketchfab.com/mujahidjohar)",
      "license": "CC-BY-NC-SA-4.0 (http://creativecommons.org/licenses/by-nc-sa/4.0/)",
      "source": "https://sketchfab.com/3d-models/proboscis-monkey-58e9f1d96e9b418c8439c5622aac33c3",
      "title": "Proboscis Monkey"
    },
    "generator": "Sketchfab-13.52.1",
    "version": "2.0"
  },
  "bufferViews": [
    {
      "buffer": 0,
      "byteLength": 3686604,
      "name": "floatBufferViews",
      "target": 34963
    },
    {
      "buffer": 0,
      "byteLength": 1381336,
      "byteOffset": 3686604,
      "byteStride": 8,
      "name": "floatBufferViews",
      "target": 34962
    },
    {
      "buffer": 0,
      "byteLength": 4144008,
      "byteOffset": 5067940,
      "byteStride": 12,
      "name": "floatBufferViews",
      "target": 34962
    }
  ],
  "buffers": [
    {
      "byteLength": 9211948,
      "uri": "scene.bin"
    }
  ],
  "extensionsUsed": [
    "KHR_materials_unlit"
  ],
  "images": [
    {
      "uri": "textures/main_baseColor.jpeg"
    }
  ],
  "materials": [
    {
      "doubleSided": true,
      "extensions": {
        "KHR_materials_unlit": {}
      },
      "name": "main",
      "pbrMetallicRoughness": {
        "baseColorTexture": {
          "index": 0
        },
        "metallicFactor": 0.0
      }
    }
  ],
  "meshes": [
    {
      "name": "Object_0",
      "primitives": [
        {
          "attributes": {
            "NORMAL": 1,
            "POSITION": 0,
            "TEXCOORD_0": 2
          },
          "indices": 3,
          "material": 0,
          "mode": 4
        }
      ]
    },
    {
      "name": "Object_1",
      "primitives": [
        {
          "attributes": {
            "NORMAL": 5,
            "POSITION": 4,
            "TEXCOORD_0": 6
          },
          "indices": 7,
          "material": 0,
          "mode": 4
        }
      ]
    },
    {
      "name": "Object_2",
      "primitives": [
        {
          "attributes": {
            "NORMAL": 9,
            "POSITION": 8,
            "TEXCOORD_0": 10
          },
          "indices": 11,
          "material": 0,
          "mode": 4
        }
      ]
    }
  ],
  "nodes": [
    {
      "children": [
        1
      ],
      "matrix": [
        1.0,
        0.0,
        0.0,
        0.0,
        0.0,
        2.220446049250313e-16,
        -1.0,
        0.0,
        0.0,
        1.0,
        2.220446049250313e-16,
        0.0,
        0.0,
        0.0,
        0.0,
        1.0
      ],
      "name": "Sketchfab_model"
    },
    {
      "children": [
        2,
        3,
        4
      ],
      "name": "Scaniverse.obj.cleaner.materialmerger.gles"
    },
    {
      "mesh": 0,
      "name": "Object_2"
    },
    {
      "mesh": 1,
      "name": "Object_3"
    },
    {
      "mesh": 2,
      "name": "Object_4"
    }
  ],
  "samplers": [
    {
      "magFilter": 9729,
      "minFilter": 9987,
      "wrapS": 10497,
      "wrapT": 10497
    }
  ],
  "scene": 0,
  "scenes": [
    {
      "name": "Sketchfab_Scene",
      "nodes": [
        0
      ]
    }
  ],
  "textures": [
    {
      "sampler": 0,
      "source": 0
    }
  ]
}
