{
  "accessors": [
    {
      "bufferView": 2,
      "componentType": 5126,
      "count": 1826,
      "max": [
        1.3145500421524048,
        4.3891401290893555,
        5.686710357666016
      ],
      "min": [
        -1.3145500421524048,
        -4.650389671325684,
        0.22292017936706543
      ],
      "type": "VEC3"
    },
    {
      "bufferView": 2,
      "byteOffset": 21912,
      "componentType": 5126,
      "count": 1826,
      "max": [
        0.9999437928199768,
        1.0,
        0.9999997019767761
      ],
      "min": [
        -1.0,
        -0.9994516968727112,
        -0.9998313188552856
      ],
      "type": "VEC3"
    },
    {
      "bufferView": 1,
      "componentType": 5125,
      "count": 10572,
      "type": "SCALAR"
    },
    {
      "bufferView": 2,
      "byteOffset": 43824,
      "componentType": 5126,
      "count": 510,
      "max": [
        1.036460041999817,
        4.651220321655273,
        5.112860202789307
      ],
      "min": [
        -1.036460041999817,
        -4.723979949951172,
        0.005460023880004883
      ],
      "type": "VEC3"
    },
    {
      "bufferView": 2,
      "byteOffset": 49944,
      "componentType": 5126,
      "count": 510,
      "max": [
        1.0,
        0.9536623954772949,
        0.9840124249458313
      ],
      "min": [
        -0.9998943209648132,
        -0.9789949655532837,
        -0.999949038028717
      ],
      "type": "VEC3"
    },
    {
      "bufferView": 1,
      "byteOffset": 42288,
      "componentType": 5125,
      "count": 2691,
      "type": "SCALAR"
    },
    {
      "bufferView": 2,
      "byteOffset": 56064,
      "componentType": 5126,
      "count": 20,
      "max": [
        0.17032000422477722,
        -4.484109878540039,
        4.454040050506592
      ],
      "min": [
        -0.17032000422477722,
        -4.684149742126465,
        4.24045991897583
      ],
      "type": "VEC3"
    },
    {
      "bufferView": 2,
      "byteOffset": 56304,
      "componentType": 5126,
      "count": 20,
      "max": [
        0.9929015040397644,
        0.09421108663082123,
        0.9051620960235596
      ],
      "min": [
        -0.9929015040397644,
        -0.992712140083313,
        -0.8857165575027466
      ],
      "type": "VEC3"
    },
    {
      "bufferView": 1,
      "byteOffset": 53052,
      "componentType": 5125,
      "count": 60,
      "type": "SCALAR"
    },
    {
      "bufferView": 2,
      "byteOffset": 56544,
      "componentType": 5126,
      "count": 101,
      "max": [
        0.5571399927139282,
        -3.649470090866089,
        5.1127800941467285
      ],
      "min": [
        -0.5560299754142761,
        -3.855560064315796,
        4.874750137329102
      ],
      "type": "VEC3"
    },
    {
      "bufferView": 2,
      "byteOffset": 57756,
      "componentType": 5126,
      "count": 101,
      "max": [
        0.9979172348976135,
        0.7963416576385498,
        0.7018397450447083
      ],
      "min": [
        -0.9960798621177673,
        -0.8684510588645935,
        -0.9577791690826416
      ],
      "type": "VEC3"
    },
    {
      "bufferView": 1,
      "byteOffset": 53292,
      "componentType": 5125,
      "count": 516,
      "type": "SCALAR"
    },
    {
      "bufferView": 2,
      "byteOffset": 58968,
      "componentType": 5126,
      "count": 104,
      "max": [
        0.48148998618125916,
        -2.0353400707244873,
        6.017450332641602
      ],
      "min": [
        -0.48148998618125916,
        -3.402630090713501,
        5.162360191345215
      ],
      "type": "VEC3"
    },
    {
      "bufferView": 2,
      "byteOffset": 60216,
      "componentType": 5126,
      "count": 104,
      "max": [
        1.0,
        0.8967159986495972,
        0.9787135124206543
      ],
      "min": [
        -1.0,
        -0.46138665080070496,
        -0.6747807264328003
      ],
      "type": "VEC3"
    },
    {
      "bufferView": 1,
      "byteOffset": 55356,
      "componentType": 5125,
      "count": 552,
      "type": "SCALAR"
    },
    {
      "bufferView": 4,
      "componentType": 5126,
      "count": 42,
      "max": [
        1.0,
        0.047040000557899475,
        1.0,
        0.0,
        0.6249600052833557,
        1.0,
        0.9985600113868713,
        0.0,
        0.9997900128364563,
        0.6249600052833557,
        1.0,
        0.0,
        0.956089973449707,
        3.051259994506836,
        1.2450499534606934,
        1.0
      ],
      "min": [
        -1.0,
        -0.047040000557899475,
        -0.04743000119924545,
        0.0,
        -0.36191999912261963,
        -1.0,
        0.0,
        0.0,
        -0.04822999984025955,
        -0.9983900189399719,
        -0.9991000294685364,
        0.0,
        -5.644830226898193,
        -4.285560131072998,
        -5.445730209350586,
        1.0
      ],
      "type": "MAT4"
    },
    {
      "bufferView": 0,
      "componentType": 5123,
      "count": 1826,
      "type": "VEC4"
    },
    {
      "bufferView": 3,
      "componentType": 5126,
      "count": 1826,
      "max": [
        1.0,
        0.4900147318840027,
        0.3178338408470154,
        0.23261496424674988
      ],
      "min": [
        0.28256866335868835,
        0.0,
        0.0,
        0.0
      ],
      "type": "VEC4"
    },
    {
      "bufferView": 0,
      "byteOffset": 14608,
      "componentType": 5123,
      "count": 510,
      "type": "VEC4"
    },
    {
      "bufferView": 3,
      "byteOffset": 29216,
      "componentType": 5126,
      "count": 510,
      "max": [
        1.0,
        0.49448469281196594,
        0.0,
        0.0
      ],
      "min": [
        0.5055152773857117,
        0.0,
        0.0,
        0.0
      ],
      "type": "VEC4"
    },
    {
      "bufferView": 0,
      "byteOffset": 18688,
      "componentType": 5123,
      "count": 20,
      "type": "VEC4"
    },
    {
      "bufferView": 3,
      "byteOffset": 37376,
      "componentType": 5126,
      "count": 20,
      "max": [
        1.0,
        0.0,
        0.0,
        0.0
      ],
      "min": [
        1.0,
        0.0,
        0.0,
        0.0
      ],
      "type": "VEC4"
    },
    {
      "bufferView": 0,
      "byteOffset": 18848,
      "componentType": 5123,
      "count": 101,
      "type": "VEC4"
    },
    {
      "bufferView": 3,
      "byteOffset": 37696,
      "componentType": 5126,
      "count": 101,
      "max": [
        0.9453293681144714,
        0.1043165773153305,
        0.0,
        0.0
      ],
      "min": [
        0.8956834077835083,
        0.05467061325907707,
        0.0,
        0.0
      ],
      "type": "VEC4"
    },
    {
      "bufferView": 0,
      "byteOffset": 19656,
      "componentType": 5123,
      "count": 104,
      "type": "VEC4"
    },
    {
      "bufferView": 3,
      "byteOffset": 39312,
      "componentType": 5126,
      "count": 104,
      "max": [
        0.7330942749977112,
        0.4999297559261322,
        0.0,
        0.0
      ],
      "min": [
        0.5000702738761902,
        0.2669057548046112,
        0.0,
        0.0
      ],
      "type": "VEC4"
    },
    {
      "bufferView": 5,
      "componentType": 5126,
      "count": 1,
      "max": [
        0.041669998317956924
      ],
      "min": [
        0.041669998317956924
      ],
      "type": "SCALAR"
    },
    {
      "bufferView": 6,
      "componentType": 5126,
      "count": 1,
      "max": [
        0.7048477530479431,
        -0.05647682026028633,
        0.7048477530479431,
        -0.05647682026028633
      ],
      "min": [
        0.7048477530479431,
        -0.05647682026028633,
        0.7048477530479431,
        -0.05647682026028633
      ],
      "type": "VEC4"
    },
    {
      "bufferView": 5,
      "byteOffset": 4,
      "componentType": 5126,
      "count": 1,
      "max": [
        0.041669998317956924
      ],
      "min": [
        0.041669998317956924
      ],
      "type": "SCALAR"
    },
    {
      "bufferView": 6,
      "byteOffset": 16,
      "componentType": 5126,
      "count": 1,
      "max": [
        0.0,
        0.0,
        -0.06977032124996185,
        0.9975630640983582
      ],
      "min": [
        0.0,
        0.0,
        -0.06977032124996185,
        0.9975630640983582
      ],
      "type": "VEC4"
    },
    {
      "bufferView": 5,
      "byteOffset": 8,
      "componentType": 5126,
      "count": 1,
      "max": [
        0.041669998317956924
      ],
      "min": [
        0.041669998317956924
      ],
      "type": "SCALAR"
    },
    {
      "bufferView": 6,
      "byteOffset": 32,
      "componentType": 5126,
      "count": 1,
      "max": [
        0.0,
        0.0,
        -0.13209287822246552,
        0.9912373423576355
      ],
      "min": [
        0.0,
        0.0,
        -0.13209287822246552,
        0.9912373423576355
      ],
      "type": "VEC4"
    },
    {
      "bufferView": 5,
      "byteOffset": 12,
      "componentType": 5126,
      "count": 1,
      "max": [
        0.041669998317956924
      ],
      "min": [
        0.041669998317956924
      ],
      "type": "SCALAR"
    },
    {
      "bufferView": 6,
      "byteOffset": 48,
      "componentType": 5126,
      "count": 1,
      "max": [
        0.0,
        0.0,
        -0.2135341912508011,
        0.9769355654716492
      ],
      "min": [
        0.0,
        0.0,
        -0.2135341912508011,
        0.9769355654716492
      ],
      "type": "VEC4"
    },
    {
      "bufferView": 5,
      "byteOffset": 16,
      "componentType": 5126,
      "count": 1,
      "max": [
        0.041669998317956924
      ],
      "min": [
        0.041669998317956924
      ],
      "type": "SCALAR"
    },
    {
      "bufferView": 6,
      "byteOffset": 64,
      "componentType": 5126,
      "count": 1,
      "max": [
        0.0,
        0.0,
        0.4992246925830841,
        0.8664725422859192
      ],
      "min": [
        0.0,
        0.0,
        0.4992246925830841,
        0.8664725422859192
      ],
      "type": "VEC4"
    },
    {
      "bufferView": 5,
      "byteOffset": 20,
      "componentType": 5126,
      "count": 1,
      "max": [
        0.041669998317956924
      ],
      "min": [
        0.041669998317956924
      ],
      "type": "SCALAR"
    },
    {
      "bufferView": 6,
      "byteOffset": 80,
      "componentType": 5126,
      "count": 1,
      "max": [
        0.4780740737915039,
        -0.5279168486595154,
        0.4481150507926941,
        0.5403164029121399
      ],
      "min": [
        0.4780740737915039,
        -0.5279168486595154,
        0.4481150507926941,
        0.5403164029121399
      ],
      "type": "VEC4"
    },
    {
      "bufferView": 5,
      "byteOffset": 24,
      "componentType": 5126,
      "count": 1,
      "max": [
        0.041669998317956924
      ],
      "min": [
        0.041669998317956924
      ],
      "type": "SCALAR"
    },
    {
      "bufferView": 6,
      "byteOffset": 96,
      "componentType": 5126,
      "count": 1,
      "max": [
        0.03402979299426079,
        0.0012733287876471877,
        0.012420618906617165,
        0.9993427991867065
      ],
      "min": [
        0.03402979299426079,
        0.0012733287876471877,
        0.012420618906617165,
        0.9993427991867065
      ],
      "type": "VEC4"
    },
    {
      "bufferView": 5,
      "byteOffset": 28,
      "componentType": 5126,
      "count": 1,
      "max": [
        0.041669998317956924
      ],
      "min": [
        0.041669998317956924
      ],
      "type": "SCALAR"
    },
    {
      "bufferView": 6,
      "byteOffset": 112,
      "componentType": 5126,
      "count": 1,
      "max": [
        -0.024337947368621826,
        -0.0012279108632355928,
        -0.00757243437692523,
        0.999674379825592
      ],
      "min": [
        -0.024337947368621826,
        -0.0012279108632355928,
        -0.00757243437692523,
        0.999674379825592
      ],
      "type": "VEC4"
    },
    {
      "bufferView": 5,
      "byteOffset": 32,
      "componentType": 5126,
      "count": 1,
      "max": [
        0.041669998317956924
      ],
      "min": [
        0.041669998317956924
      ],
      "type": "SCALAR"
    },
    {
      "bufferView": 6,
      "byteOffset": 128,
      "componentType": 5126,
      "count": 1,
      "max": [
        -0.5999355912208557,
        0.0064376904629170895,
        -0.004252110607922077,
        0.8000110983848572
      ],
      "min": [
        -0.5999355912208557,
        0.0064376904629170895,
        -0.004252110607922077,
        0.8000110983848572
      ],
      "type": "VEC4"
    },
    {
      "bufferView": 5,
      "byteOffset": 36,
      "componentType": 5126,
      "count": 1,
      "max": [
        0.041669998317956924
      ],
      "min": [
        0.041669998317956924
      ],
      "type": "SCALAR"
    },
    {
      "bufferView": 6,
      "byteOffset": 144,
      "componentType": 5126,
      "count": 1,
      "max": [
        0.5879963040351868,
        -0.4085662364959717,
        0.5570815205574036,
        0.4207066297531128
      ],
      "min": [
        0.5879963040351868,
        -0.4085662364959717,
        0.5570815205574036,
        0.4207066297531128
      ],
      "type": "VEC4"
    },
    {
      "bufferView": 5,
      "byteOffset": 40,
      "componentType": 5126,
      "count": 1,
      "max": [
        0.041669998317956924
      ],
      "min": [
        0.041669998317956924
      ],
      "type": "SCALAR"
    },
    {
      "bufferView": 6,
      "byteOffset": 160,
      "componentType": 5126,
      "count": 1,
      "max": [
        -0.22716164588928223,
        -0.006463249213993549,
        0.02316025272011757,
        0.9735601544380188
      ],
      "min": [
        -0.22716164588928223,
        -0.006463249213993549,
        0.02316025272011757,
        0.9735601544380188
      ],
      "type": "VEC4"
    },
    {
      "bufferView": 5,
      "byteOffset": 44,
      "componentType": 5126,
      "count": 1,
      "max": [
        0.041669998317956924
      ],
      "min": [
        0.041669998317956924
      ],
      "type": "SCALAR"
    },
    {
      "bufferView": 6,
      "byteOffset": 176,
      "componentType": 5126,
      "count": 1,
      "max": [
        -0.08885268867015839,
        -0.0019402661127969623,
        0.009093781001865864,
        0.9960013628005981
      ],
      "min": [
        -0.08885268867015839,
        -0.0019402661127969623,
        0.009093781001865864,
        0.9960013628005981
      ],
      "type": "VEC4"
    },
    {
      "bufferView": 5,
      "byteOffset": 48,
      "componentType": 5126,
      "count": 1,
      "max": [
        0.041669998317956924
      ],
      "min": [
        0.041669998317956924
      ],
      "type": "SCALAR"
    },
    {
      "bufferView": 6,
      "byteOffset": 192,
      "componentType": 5126,
      "count": 1,
      "max": [
        -0.4907783567905426,
        0.0241220835596323,
        -0.022858675569295883,
        0.8706504702568054
      ],
      "min": [
        -0.4907783567905426,
        0.0241220835596323,
        -0.022858675569295883,
        0.8706504702568054
      ],
      "type": "VEC4"
    },
    {
      "bufferView": 5,
      "byteOffset": 52,
      "componentType": 5126,
      "count": 1,
      "max": [
        0.041669998317956924
      ],
      "min": [
        0.041669998317956924
      ],
      "type": "SCALAR"
    },
    {
      "bufferView": 6,
      "byteOffset": 208,
      "componentType": 5126,
      "count": 1,
      "max": [
        0.4481150507926941,
        -0.5403164029121399,
        0.4780740737915039,
        0.5279168486595154
      ],
      "min": [
        0.4481150507926941,
        -0.5403164029121399,
        0.4780740737915039,
        0.5279168486595154
      ],
      "type": "VEC4"
    },
    {
      "bufferView": 5,
      "byteOffset": 56,
      "componentType": 5126,
      "count": 1,
      "max": [
        0.041669998317956924
      ],
      "min": [
        0.041669998317956924
      ],
      "type": "SCALAR"
    },
    {
      "bufferView": 6,
      "byteOffset": 224,
      "componentType": 5126,
      "count": 1,
      "max": [
        0.03401980176568031,
        -0.0012732045724987984,
        -0.01242063194513321,
        0.9993431568145752
      ],
      "min": [
        0.03401980176568031,
        -0.0012732045724987984,
        -0.01242063194513321,
        0.9993431568145752
      ],
      "type": "VEC4"
    },
    {
      "bufferView": 5,
      "byteOffset": 60,
      "componentType": 5126,
      "count": 1,
      "max": [
        0.041669998317956924
      ],
      "min": [
        0.041669998317956924
      ],
      "type": "SCALAR"
    },
    {
      "bufferView": 6,
      "byteOffset": 240,
      "componentType": 5126,
      "count": 1,
      "max": [
        -0.024337947368621826,
        0.0012279108632355928,
        0.00757243437692523,
        0.999674379825592
      ],
      "min": [
        -0.024337947368621826,
        0.0012279108632355928,
        0.00757243437692523,
        0.999674379825592
      ],
      "type": "VEC4"
    },
    {
      "bufferView": 5,
      "byteOffset": 64,
      "componentType": 5126,
      "count": 1,
      "max": [
        0.041669998317956924
      ],
      "min": [
        0.041669998317956924
      ],
      "type": "SCALAR"
    },
    {
      "bufferView": 6,
      "byteOffset": 256,
      "componentType": 5126,
      "count": 1,
      "max": [
        -0.5999355912208557,
        -0.0064376904629170895,
        0.004252110607922077,
        0.8000110983848572
      ],
      "min": [
        -0.5999355912208557,
        -0.0064376904629170895,
        0.004252110607922077,
        0.8000110983848572
      ],
      "type": "VEC4"
    },
    {
      "bufferView": 5,
      "byteOffset": 68,
      "componentType": 5126,
      "count": 1,
      "max": [
        0.041669998317956924
      ],
      "min": [
        0.041669998317956924
      ],
      "type": "SCALAR"
    },
    {
      "bufferView": 6,
      "byteOffset": 272,
      "componentType": 5126,
      "count": 1,
      "max": [
        0.5570884346961975,
        -0.4207093417644501,
        0.5879918336868286,
        0.40856069326400757
      ],
      "min": [
        0.5570884346961975,
        -0.4207093417644501,
        0.5879918336868286,
        0.40856069326400757
      ],
      "type": "VEC4"
    },
    {
      "bufferView": 5,
      "byteOffset": 72,
      "componentType": 5126,
      "count": 1,
      "max": [
        0.041669998317956924
      ],
      "min": [
        0.041669998317956924
      ],
      "type": "SCALAR"
    },
    {
      "bufferView": 6,
      "byteOffset": 288,
      "componentType": 5126,
      "count": 1,
      "max": [
        -0.22716164588928223,
        0.006463249213993549,
        -0.02316025272011757,
        0.9735601544380188
      ],
      "min": [
        -0.22716164588928223,
        0.006463249213993549,
        -0.02316025272011757,
        0.9735601544380188
      ],
      "type": "VEC4"
    },
    {
      "bufferView": 5,
      "byteOffset": 76,
      "componentType": 5126,
      "count": 1,
      "max": [
        0.041669998317956924
      ],
      "min": [
        0.041669998317956924
      ],
      "type": "SCALAR"
    },
    {
      "bufferView": 6,
      "byteOffset": 304,
      "componentType": 5126,
      "count": 1,
      "max": [
        -0.08885268867015839,
        0.0019402661127969623,
        -0.009093781001865864,
        0.9960013628005981
      ],
      "min": [
        -0.08885268867015839,
        0.0019402661127969623,
        -0.009093781001865864,
        0.9960013628005981
      ],
      "type": "VEC4"
    },
    {
      "bufferView": 5,
      "byteOffset": 80,
      "componentType": 5126,
      "count": 1,
      "max": [
        0.041669998317956924
      ],
      "min": [
        0.041669998317956924
      ],
      "type": "SCALAR"
    },
    {
      "bufferView": 6,
      "byteOffset": 320,
      "componentType": 5126,
      "count": 1,
      "max": [
        -0.4907783567905426,
        -0.0241220835596323,
        0.022858675569295883,
        0.8706504702568054
      ],
      "min": [
        -0.4907783567905426,
        -0.0241220835596323,
        0.022858675569295883,
        0.8706504702568054
      ],
      "type": "VEC4"
    },
    {
      "bufferView": 5,
      "byteOffset": 84,
      "componentType": 5126,
      "count": 1,
      "max": [
        0.041669998317956924
      ],
      "min": [
        0.041669998317956924
      ],
      "type": "SCALAR"
    },
    {
      "bufferView": 6,
      "byteOffset": 336,
      "componentType": 5126,
      "count": 1,
      "max": [
        0.6736536026000977,
        -0.21492044627666473,
        0.6736536026000977,
        0.21492044627666473
      ],
      "min": [
        0.6736536026000977,
        -0.21492044627666473,
        0.6736536026000977,
        0.21492044627666473
      ],
      "type": "VEC4"
    },
    {
      "bufferView": 5,
      "byteOffset": 88,
      "componentType": 5126,
      "count": 1,
      "max": [
        0.041669998317956924
      ],
      "min": [
        0.041669998317956924
      ],
      "type": "SCALAR"
    },
    {
      "bufferView": 6,
      "byteOffset": 352,
      "componentType": 5126,
      "count": 1,
      "max": [
        -0.16780495643615723,
        0.0,
        0.0,
        0.9858202338218689
      ],
      "min": [
        -0.16780495643615723,
        0.0,
        0.0,
        0.9858202338218689
      ],
      "type": "VEC4"
    },
    {
      "bufferView": 5,
      "byteOffset": 92,
      "componentType": 5126,
      "count": 1,
      "max": [
        0.041669998317956924
      ],
      "min": [
        0.041669998317956924
      ],
      "type": "SCALAR"
    },
    {
      "bufferView": 6,
      "byteOffset": 368,
      "componentType": 5126,
      "count": 1,
      "max": [
        -0.12555384635925293,
        0.0,
        0.0,
        0.9920868277549744
      ],
      "min": [
        -0.12555384635925293,
        0.0,
        0.0,
        0.9920868277549744
      ],
      "type": "VEC4"
    },
    {
      "bufferView": 5,
      "byteOffset": 96,
      "componentType": 5126,
      "count": 1,
      "max": [
        0.041669998317956924
      ],
      "min": [
        0.041669998317956924
      ],
      "type": "SCALAR"
    },
    {
      "bufferView": 6,
      "byteOffset": 384,
      "componentType": 5126,
      "count": 1,
      "max": [
        -0.0291523989289999,
        0.0,
        0.0,
        0.9995749592781067
      ],
      "min": [
        -0.0291523989289999,
        0.0,
        0.0,
        0.9995749592781067
      ],
      "type": "VEC4"
    },
    {
      "bufferView": 5,
      "byteOffset": 100,
      "componentType": 5126,
      "count": 1,
      "max": [
        0.041669998317956924
      ],
      "min": [
        0.041669998317956924
      ],
      "type": "SCALAR"
    },
    {
      "bufferView": 6,
      "byteOffset": 400,
      "componentType": 5126,
      "count": 1,
      "max": [
        0.008460275828838348,
        0.0,
        0.0,
        0.9999642372131348
      ],
      "min": [
        0.008460275828838348,
        0.0,
        0.0,
        0.9999642372131348
      ],
      "type": "VEC4"
    },
    {
      "bufferView": 5,
      "byteOffset": 104,
      "componentType": 5126,
      "count": 1,
      "max": [
        0.041669998317956924
      ],
      "min": [
        0.041669998317956924
      ],
      "type": "SCALAR"
    },
    {
      "bufferView": 6,
      "byteOffset": 416,
      "componentType": 5126,
      "count": 1,
      "max": [
        0.007410204969346523,
        0.0,
        0.0,
        0.9999725222587585
      ],
      "min": [
        0.007410204969346523,
        0.0,
        0.0,
        0.9999725222587585
      ],
      "type": "VEC4"
    },
    {
      "bufferView": 5,
      "byteOffset": 108,
      "componentType": 5126,
      "count": 1,
      "max": [
        0.041669998317956924
      ],
      "min": [
        0.041669998317956924
      ],
      "type": "SCALAR"
    },
    {
      "bufferView": 6,
      "byteOffset": 432,
      "componentType": 5126,
      "count": 1,
      "max": [
        0.16465210914611816,
        0.0,
        0.0,
        0.986351728439331
      ],
      "min": [
        0.16465210914611816,
        0.0,
        0.0,
        0.986351728439331
      ],
      "type": "VEC4"
    },
    {
      "bufferView": 5,
      "byteOffset": 112,
      "componentType": 5126,
      "count": 1,
      "max": [
        0.041669998317956924
      ],
      "min": [
        0.041669998317956924
      ],
      "type": "SCALAR"
    },
    {
      "bufferView": 6,
      "byteOffset": 448,
      "componentType": 5126,
      "count": 1,
      "max": [
        -0.010925665497779846,
        -0.0,
        0.0,
        0.9999403357505798
      ],
      "min": [
        -0.010925665497779846,
        -0.0,
        0.0,
        0.9999403357505798
      ],
      "type": "VEC4"
    },
    {
      "bufferView": 5,
      "byteOffset": 116,
      "componentType": 5126,
      "count": 1,
      "max": [
        0.041669998317956924
      ],
      "min": [
        0.041669998317956924
      ],
      "type": "SCALAR"
    },
    {
      "bufferView": 6,
      "byteOffset": 464,
      "componentType": 5126,
      "count": 1,
      "max": [
        0.0,
        0.012445841915905476,
        0.9999225735664368,
        0.0
      ],
      "min": [
        0.0,
        0.012445841915905476,
        0.9999225735664368,
        0.0
      ],
      "type": "VEC4"
    },
    {
      "bufferView": 5,
      "byteOffset": 120,
      "componentType": 5126,
      "count": 1,
      "max": [
        0.041669998317956924
      ],
      "min": [
        0.041669998317956924
      ],
      "type": "SCALAR"
    },
    {
      "bufferView": 6,
      "byteOffset": 480,
      "componentType": 5126,
      "count": 1,
      "max": [
        0.9995598196983337,
        0.0,
        0.0,
        -0.029667900875210762
      ],
      "min": [
        0.9995598196983337,
        0.0,
        0.0,
        -0.029667900875210762
      ],
      "type": "VEC4"
    },
    {
      "bufferView": 5,
      "byteOffset": 124,
      "componentType": 5126,
      "count": 1,
      "max": [
        0.041669998317956924
      ],
      "min": [
        0.041669998317956924
      ],
      "type": "SCALAR"
    },
    {
      "bufferView": 6,
      "byteOffset": 496,
      "componentType": 5126,
      "count": 1,
      "max": [
        0.9964677691459656,
        0.0,
        0.0,
        0.08397628366947174
      ],
      "min": [
        0.9964677691459656,
        0.0,
        0.0,
        0.08397628366947174
      ],
      "type": "VEC4"
    },
    {
      "bufferView": 5,
      "byteOffset": 128,
      "componentType": 5126,
      "count": 1,
      "max": [
        0.041669998317956924
      ],
      "min": [
        0.041669998317956924
      ],
      "type": "SCALAR"
    },
    {
      "bufferView": 6,
      "byteOffset": 512,
      "componentType": 5126,
      "count": 1,
      "max": [
        0.0,
        0.0,
        1.0,
        0.0
      ],
      "min": [
        0.0,
        0.0,
        1.0,
        0.0
      ],
      "type": "VEC4"
    },
    {
      "bufferView": 5,
      "byteOffset": 132,
      "componentType": 5126,
      "count": 1,
      "max": [
        0.041669998317956924
      ],
      "min": [
        0.041669998317956924
      ],
      "type": "SCALAR"
    },
    {
      "bufferView": 6,
      "byteOffset": 528,
      "componentType": 5126,
      "count": 1,
      "max": [
        0.0,
        0.012445841915905476,
        0.9999225735664368,
        0.0
      ],
      "min": [
        0.0,
        0.012445841915905476,
        0.9999225735664368,
        0.0
      ],
      "type": "VEC4"
    },
    {
      "bufferView": 5,
      "byteOffset": 136,
      "componentType": 5126,
      "count": 1,
      "max": [
        0.041669998317956924
      ],
      "min": [
        0.041669998317956924
      ],
      "type": "SCALAR"
    },
    {
      "bufferView": 6,
      "byteOffset": 544,
      "componentType": 5126,
      "count": 1,
      "max": [
        0.9995598196983337,
        0.0,
        0.0,
        -0.029667900875210762
      ],
      "min": [
        0.9995598196983337,
        0.0,
        0.0,
        -0.029667900875210762
      ],
      "type": "VEC4"
    },
    {
      "bufferView": 5,
      "byteOffset": 140,
      "componentType": 5126,
      "count": 1,
      "max": [
        0.041669998317956924
      ],
      "min": [
        0.041669998317956924
      ],
      "type": "SCALAR"
    },
    {
      "bufferView": 6,
      "byteOffset": 560,
      "componentType": 5126,
      "count": 1,
      "max": [
        0.9964677691459656,
        0.0,
        0.0,
        0.08397628366947174
      ],
      "min": [
        0.9964677691459656,
        0.0,
        0.0,
        0.08397628366947174
      ],
      "type": "VEC4"
    },
    {
      "bufferView": 5,
      "byteOffset": 144,
      "componentType": 5126,
      "count": 1,
      "max": [
        0.041669998317956924
      ],
      "min": [
        0.041669998317956924
      ],
      "type": "SCALAR"
    },
    {
      "bufferView": 6,
      "byteOffset": 576,
      "componentType": 5126,
      "count": 1,
      "max": [
        0.9997633099555969,
        0.0,
        -4.998949862056179e-06,
        -0.02175576612353325
      ],
      "min": [
        0.9997633099555969,
        0.0,
        -4.998949862056179e-06,
        -0.02175576612353325
      ],
      "type": "VEC4"
    },
    {
      "bufferView": 5,
      "byteOffset": 148,
      "componentType": 5126,
      "count": 1,
      "max": [
        0.041669998317956924
      ],
      "min": [
        0.041669998317956924
      ],
      "type": "SCALAR"
    },
    {
      "bufferView": 6,
      "byteOffset": 592,
      "componentType": 5126,
      "count": 1,
      "max": [
        0.9976041913032532,
        0.0,
        -4.987991360394517e-06,
        0.06918026506900787
      ],
      "min": [
        0.9976041913032532,
        0.0,
        -4.987991360394517e-06,
        0.06918026506900787
      ],
      "type": "VEC4"
    },
    {
      "bufferView": 5,
      "byteOffset": 152,
      "componentType": 5126,
      "count": 1,
      "max": [
        0.041669998317956924
      ],
      "min": [
        0.041669998317956924
      ],
      "type": "SCALAR"
    },
    {
      "bufferView": 6,
      "byteOffset": 608,
      "componentType": 5126,
      "count": 1,
      "max": [
        0.0,
        0.0,
        1.0,
        0.0
      ],
      "min": [
        0.0,
        0.0,
        1.0,
        0.0
      ],
      "type": "VEC4"
    },
    {
      "bufferView": 5,
      "byteOffset": 156,
      "componentType": 5126,
      "count": 1,
      "max": [
        0.041669998317956924
      ],
      "min": [
        0.041669998317956924
      ],
      "type": "SCALAR"
    },
    {
      "bufferView": 6,
      "byteOffset": 624,
      "componentType": 5126,
      "count": 1,
      "max": [
        0.9997633099555969,
        0.0,
        4.998949862056179e-06,
        -0.02175576612353325
      ],
      "min": [
        0.9997633099555969,
        0.0,
        4.998949862056179e-06,
        -0.02175576612353325
      ],
      "type": "VEC4"
    },
    {
      "bufferView": 5,
      "byteOffset": 160,
      "componentType": 5126,
      "count": 1,
      "max": [
        0.041669998317956924
      ],
      "min": [
        0.041669998317956924
      ],
      "type": "SCALAR"
    },
    {
      "bufferView": 6,
      "byteOffset": 640,
      "componentType": 5126,
      "count": 1,
      "max": [
        0.9976041913032532,
        0.0,
        4.987991360394517e-06,
        0.06918026506900787
      ],
      "min": [
        0.9976041913032532,
        0.0,
        4.987991360394517e-06,
        0.06918026506900787
      ],
      "type": "VEC4"
    },
    {
      "bufferView": 5,
      "byteOffset": 164,
      "componentType": 5126,
      "count": 1,
      "max": [
        0.041669998317956924
      ],
      "min": [
        0.041669998317956924
      ],
      "type": "SCALAR"
    },
    {
      "bufferView": 6,
      "byteOffset": 656,
      "componentType": 5126,
      "count": 1,
      "max": [
        0.0,
        0.0,
        0.0,
        1.0
      ],
      "min": [
        0.0,
        0.0,
        0.0,
        1.0
      ],
      "type": "VEC4"
    },
    {
      "bufferView": 5,
      "byteOffset": 168,
      "componentType": 5126,
      "count": 1,
      "max": [
        0.041669998317956924
      ],
      "min": [
        0.041669998317956924
      ],
      "type": "SCALAR"
    },
    {
      "bufferView": 6,
      "byteOffset": 672,
      "componentType": 5126,
      "count": 1,
      "max": [
        0.0,
        0.0,
        0.0,
        1.0
      ],
      "min": [
        0.0,
        0.0,
        0.0,
        1.0
      ],
      "type": "VEC4"
    }
  ],
  "animations": [
    {
      "channels": [
        {
          "sampler": 0,
          "target": {
            "node": 4,
            "path": "rotation"
          }
        },
        {
          "sampler": 1,
          "target": {
            "node": 5,
            "path": "rotation"
          }
        },
        {
          "sampler": 2,
          "target": {
            "node": 6,
            "path": "rotation"
          }
        },
        {
          "sampler": 3,
          "target": {
            "node": 7,
            "path": "rotation"
          }
        },
        {
          "sampler": 4,
          "target": {
            "node": 8,
            "path": "rotation"
          }
        },
        {
          "sampler": 5,
          "target": {
            "node": 9,
            "path": "rotation"
          }
        },
        {
          "sampler": 6,
          "target": {
            "node": 10,
            "path": "rotation"
          }
        },
        {
          "sampler": 7,
          "target": {
            "node": 11,
            "path": "rotation"
          }
        },
        {
          "sampler": 8,
          "target": {
            "node": 12,
            "path": "rotation"
          }
        },
        {
          "sampler": 9,
          "target": {
            "node": 13,
            "path": "rotation"
          }
        },
        {
          "sampler": 10,
          "target": {
            "node": 14,
            "path": "rotation"
          }
        },
        {
          "sampler": 11,
          "target": {
            "node": 15,
            "path": "rotation"
          }
        },
        {
          "sampler": 12,
          "target": {
            "node": 16,
            "path": "rotation"
          }
        },
        {
          "sampler": 13,
          "target": {
            "node": 17,
            "path": "rotation"
          }
        },
        {
          "sampler": 14,
          "target": {
            "node": 18,
            "path": "rotation"
          }
        },
        {
          "sampler": 15,
          "target": {
            "node": 19,
            "path": "rotation"
          }
        },
        {
          "sampler": 16,
          "target": {
            "node": 20,
            "path": "rotation"
          }
        },
        {
          "sampler": 17,
          "target": {
            "node": 21,
            "path": "rotation"
          }
        },
        {
          "sampler": 18,
          "target": {
            "node": 22,
            "path": "rotation"
          }
        },
        {
          "sampler": 19,
          "target": {
            "node": 23,
            "path": "rotation"
          }
        },
        {
          "sampler": 20,
          "target": {
            "node": 24,
            "path": "rotation"
          }
        },
        {
          "sampler": 21,
          "target": {
            "node": 25,
            "path": "rotation"
          }
        },
        {
          "sampler": 22,
          "target": {
            "node": 26,
            "path": "rotation"
          }
        },
        {
          "sampler": 23,
          "target": {
            "node": 27,
            "path": "rotation"
          }
        },
        {
          "sampler": 24,
          "target": {
            "node": 28,
            "path": "rotation"
          }
        },
        {
          "sampler": 25,
          "target": {
            "node": 29,
            "path": "rotation"
          }
        },
        {
          "sampler": 26,
          "target": {
            "node": 30,
            "path": "rotation"
          }
        },
        {
          "sampler": 27,
          "target": {
            "node": 31,
            "path": "rotation"
          }
        },
        {
          "sampler": 28,
          "target": {
            "node": 32,
            "path": "rotation"
          }
        },
        {
          "sampler": 29,
          "target": {
            "node": 33,
            "path": "rotation"
          }
        },
        {
          "sampler": 30,
          "target": {
            "node": 34,
            "path": "rotation"
          }
        },
        {
          "sampler": 31,
          "target": {
            "node": 35,
            "path": "rotation"
          }
        },
        {
          "sampler": 32,
          "target": {
            "node": 36,
            "path": "rotation"
          }
        },
        {
          "sampler": 33,
          "target": {
            "node": 37,
            "path": "rotation"
          }
        },
        {
          "sampler": 34,
          "target": {
            "node": 38,
            "path": "rotation"
          }
        },
        {
          "sampler": 35,
          "target": {
            "node": 39,
            "path": "rotation"
          }
        },
        {
          "sampler": 36,
          "target": {
            "node": 40,
            "path": "rotation"
          }
        },
        {
          "sampler": 37,
          "target": {
            "node": 41,
            "path": "rotation"
          }
        },
        {
          "sampler": 38,
          "target": {
            "node": 42,
            "path": "rotation"
          }
        },
        {
          "sampler": 39,
          "target": {
            "node": 43,
            "path": "rotation"
          }
        },
        {
          "sampler": 40,
          "target": {
            "node": 44,
            "path": "rotation"
          }
        },
        {
          "sampler": 41,
          "target": {
            "node": 2,
            "path": "rotation"
          }
        },
        {
          "sampler": 42,
          "target": {
            "node": 45,
            "path": "rotation"
          }
        }
      ],
      "name": "Take 01",
      "samplers": [
        {
          "input": 26,
          "interpolation": "LINEAR",
          "output": 27
        },
        {
          "input": 28,
          "interpolation": "LINEAR",
          "output": 29
        },
        {
          "input": 30,
          "interpolation": "LINEAR",
          "output": 31
        },
        {
          "input": 32,
          "interpolation": "LINEAR",
          "output": 33
        },
        {
          "input": 34,
          "interpolation": "LINEAR",
          "output": 35
        },
        {
          "input": 36,
          "interpolation": "LINEAR",
          "output": 37
        },
        {
          "input": 38,
          "interpolation": "LINEAR",
          "output": 39
        },
        {
          "input": 40,
          "interpolation": "LINEAR",
          "output": 41
        },
        {
          "input": 42,
          "interpolation": "LINEAR",
          "output": 43
        },
        {
          "input": 44,
          "interpolation": "LINEAR",
          "output": 45
        },
        {
          "input": 46,
          "interpolation": "LINEAR",
          "output": 47
        },
        {
          "input": 48,
          "interpolation": "LINEAR",
          "output": 49
        },
        {
          "input": 50,
          "interpolation": "LINEAR",
          "output": 51
        },
        {
          "input": 52,
          "interpolation": "LINEAR",
          "output": 53
        },
        {
          "input": 54,
          "interpolation": "LINEAR",
          "output": 55
        },
        {
          "input": 56,
          "interpolation": "LINEAR",
          "output": 57
        },
        {
          "input": 58,
          "interpolation": "LINEAR",
          "output": 59
        },
        {
          "input": 60,
          "interpolation": "LINEAR",
          "output": 61
        },
        {
          "input": 62,
          "interpolation": "LINEAR",
          "output": 63
        },
        {
          "input": 64,
          "interpolation": "LINEAR",
          "output": 65
        },
        {
          "input": 66,
          "interpolation": "LINEAR",
          "output": 67
        },
        {
          "input": 68,
          "interpolation": "LINEAR",
          "output": 69
        },
        {
          "input": 70,
          "interpolation": "LINEAR",
          "output": 71
        },
        {
          "input": 72,
          "interpolation": "LINEAR",
          "output": 73
        },
        {
          "input": 74,
          "interpolation": "LINEAR",
          "output": 75
        },
        {
          "input": 76,
          "interpolation": "LINEAR",
          "output": 77
        },
        {
          "input": 78,
          "interpolation": "LINEAR",
          "output": 79
        },
        {
          "input": 80,
          "interpolation": "LINEAR",
          "output": 81
        },
        {
          "input": 82,
          "interpolation": "LINEAR",
          "output": 83
        },
        {
          "input": 84,
          "interpolation": "LINEAR",
          "output": 85
        },
        {
          "input": 86,
          "interpolation": "LINEAR",
          "output": 87
        },
        {
          "input": 88,
          "interpolation": "LINEAR",
          "output": 89
        },
        {
          "input": 90,
          "interpolation": "LINEAR",
          "output": 91
        },
        {
          "input": 92,
          "interpolation": "LINEAR",
          "output": 93
        },
        {
          "input": 94,
          "interpolation": "LINEAR",
          "output": 95
        },
        {
          "input": 96,
          "interpolation": "LINEAR",
          "output": 97
        },
        {
          "input": 98,
          "interpolation": "LINEAR",
          "output": 99
        },
        {
          "input": 100,
          "interpolation": "LINEAR",
          "output": 101
        },
        {
          "input": 102,
          "interpolation": "LINEAR",
          "output": 103
        },
        {
          "input": 104,
          "interpolation": "LINEAR",
          "output": 105
        },
        {
          "input": 106,
          "interpolation": "LINEAR",
          "output": 107
        },
        {
          "input": 108,
          "interpolation": "LINEAR",
          "output": 109
        },
        {
          "input": 110,
          "interpolation": "LINEAR",
          "output": 111
        }
      ]
    }
  ],
  "asset": {
    "extras": {
      "author": "Aditya Riyanto (https://sketchfab.com/KyoSaito)",
      "license": "CC-BY-4.0 (http://creativecommons.org/licenses/by/4.0/)",
      "source": "https://sketchfab.com/3d-models/anoa-model-bd206c5f8583468d9082b5db41e5dc76",
      "title": "Anoa Model"
    },
    "generator": "Sketchfab-12.66.0",
    "version": "2.0"
  },
  "bufferViews": [
    {
      "buffer": 0,
      "byteLength": 20488,
      "byteStride": 8,
      "name": "shortBufferViews",
      "target": 34962
    },
    {
      "buffer": 0,
      "byteLength": 57564,
      "byteOffset": 20488,
      "name": "floatBufferViews",
      "target": 34963
    },
    {
      "buffer": 0,
      "byteLength": 61464,
      "byteOffset": 78052,
      "byteStride": 12,
      "name": "floatBufferViews",
      "target": 34962
    },
    {
      "buffer": 0,
      "byteLength": 40976,
      "byteOffset": 139516,
      "byteStride": 16,
      "name": "floatBufferViews",
      "target": 34962
    },
    {
      "buffer": 0,
      "byteLength": 2688,
      "byteOffset": 180492,
      "name": "floatBufferViews"
    },
    {
      "buffer": 0,
      "byteLength": 172,
      "byteOffset": 183180,
      "name": "floatBufferViews"
    },
    {
      "buffer": 0,
      "byteLength": 688,
      "byteOffset": 183352,
      "byteStride": 16,
      "name": "floatBufferViews"
    }
  ],
  "buffers": [
    {
      "byteLength": 184040,
      "uri": "scene.bin"
    }
  ],
  "materials": [
    {
      "doubleSided": true,
      "name": "anoa_base",
      "pbrMetallicRoughness": {
        "baseColorFactor": [
          0.12621566653251648,
          0.12621566653251648,
          0.12621566653251648,
          1.0
        ],
        "metallicFactor": 0.0,
        "roughnessFactor": 0.6
      }
    },
    {
      "doubleSided": true,
      "name": "anoa_dark_spot",
      "pbrMetallicRoughness": {
        "baseColorFactor": [
          0.03081691823899746,
          0.03081691823899746,
          0.03081691823899746,
          1.0
        ],
        "metallicFactor": 0.0,
        "roughnessFactor": 0.6
      }
    },
    {
      "doubleSided": true,
      "name": "anoa_black",
      "pbrMetallicRoughness": {
        "baseColorFactor": [
          0.0,
          0.0,
          0.0,
          1.0
        ],
        "metallicFactor": 0.0,
        "roughnessFactor": 0.6
      }
    },
    {
      "doubleSided": true,
      "name": "anoa_eye",
      "pbrMetallicRoughness": {
        "baseColorFactor": [
          0.0,
          0.0,
          0.0,
          1.0
        ],
        "metallicFactor": 0.0,
        "roughnessFactor": 0.6
      }
    },
    {
      "doubleSided": true,
      "name": "anoa_horn",
      "pbrMetallicRoughness": {
        "baseColorFactor": [
          0.5372049808502197,
          0.4802846908569336,
          0.4161032438278198,
          1.0
        ],
        "metallicFactor": 0.0,
        "roughnessFactor": 0.6
      }
    }
  ],
  "meshes": [
    {
      "name": "Body",
      "primitives": [
        {
          "attributes": {
            "JOINTS_0": 16,
            "NORMAL": 1,
            "POSITION": 0,
            "WEIGHTS_0": 17
          },
          "indices": 2,
          "material": 0,
          "mode": 4
        }
      ]
    },
    {
      "name": "Body",
      "primitives": [
        {
          "attributes": {
            "JOINTS_0": 18,
            "NORMAL": 4,
            "POSITION": 3,
            "WEIGHTS_0": 19
          },
          "indices": 5,
          "material": 1,
          "mode": 4
        }
      ]
    },
    {
      "name": "Body",
      "primitives": [
        {
          "attributes": {
            "JOINTS_0": 20,
            "NORMAL": 7,
            "POSITION": 6,
            "WEIGHTS_0": 21
          },
          "indices": 8,
          "material": 2,
          "mode": 4
        }
      ]
    },
    {
      "name": "Body",
      "primitives": [
        {
          "attributes": {
            "JOINTS_0": 22,
            "NORMAL": 10,
            "POSITION": 9,
            "WEIGHTS_0": 23
          },
          "indices": 11,
          "material": 3,
          "mode": 4
        }
      ]
    },
    {
      "name": "Body",
      "primitives": [
        {
          "attributes": {
            "JOINTS_0": 24,
            "NORMAL": 13,
            "POSITION": 12,
            "WEIGHTS_0": 25
          },
          "indices": 14,
          "material": 4,
          "mode": 4
        }
      ]
    }
  ],
  "nodes": [
    {
      "children": [
        1
      ],
      "matrix": [
        1.0,
        0.0,
        0.0,
        0.0,
        0.0,
        2.220446049250313e-16,
        -1.0,
        0.0,
        0.0,
        1.0,
        2.220446049250313e-16,
        0.0,
        0.0,
        0.0,
        0.0,
        1.0
      ],
      "name": "Sketchfab_model"
    },
    {
      "children": [
        2
      ],
      "name": "Root"
    },
    {
      "children": [
        3,
        46,
        47,
        48,
        49,
        50,
        45
      ],
      "name": "Armature.001"
    },
    {
      "children": [
        4,
        32,
        33,
        34,
        36,
        37,
        38,
        40,
        42,
        43
      ],
      "name": "Armature.001_rootJoint"
    },
    {
      "children": [
        5
      ],
      "name": "back_Armature.001",
      "rotation": [
        0.7048478126525879,
        -0.05647682771086693,
        0.7048478126525879,
        -0.05647682771086693
      ],
      "scale": [
        0.9999985098838806,
        0.9999985098838806,
        1.0
      ],
      "translation": [
        0.0,
        2.467859983444214,
        3.8615899085998535
      ]
    },
    {
      "children": [
        6,
        9,
        13,
        17,
        21,
        25
      ],
      "name": "middle_Armature.001",
      "rotation": [
        0.0,
        0.0,
        -0.06977032124996185,
        0.9975630640983582
      ],
      "scale": [
        0.999995768070221,
        0.999995768070221,
        1.0
      ],
      "translation": [
        0.0,
        1.5020899772644043,
        0.0
      ]
    },
    {
      "children": [
        7
      ],
      "name": "chest_Armature.001",
      "rotation": [
        0.0,
        0.0,
        -0.13209287822246552,
        0.9912373423576355
      ],
      "scale": [
        0.9999969601631165,
        0.9999969601631165,
        1.0
      ],
      "translation": [
        0.0,
        1.3489400148391724,
        0.0
      ]
    },
    {
      "children": [
        8
      ],
      "name": "neck_Armature.001",
      "rotation": [
        0.0,
        0.0,
        -0.21353422105312347,
        0.9769356846809387
      ],
      "scale": [
        1.0000040531158447,
        1.0000040531158447,
        1.0
      ],
      "translation": [
        0.0,
        1.7557899951934814,
        0.0
      ]
    },
    {
      "name": "head_Armature.001",
      "rotation": [
        0.0,
        0.0,
        0.4992246925830841,
        0.8664725422859192
      ],
      "scale": [
        1.0000011920928955,
        1.0000011920928955,
        1.0
      ],
      "translation": [
        0.0,
        1.3278499841690063,
        0.0
      ]
    },
    {
      "children": [
        10
      ],
      "name": "front_thigh.L_Armature.001",
      "rotation": [
        0.47457143664360046,
        -0.5239725112915039,
        0.45174354314804077,
        0.5442081689834595
      ],
      "scale": [
        1.0000015497207642,
        0.999999463558197,
        0.9999960064888
      ],
      "translation": [
        -0.4643400013446808,
        1.8676400184631348,
        0.8272799849510193
      ]
    },
    {
      "children": [
        11
      ],
      "name": "front_leg.L_Armature.001",
      "rotation": [
        0.034029796719551086,
        0.0012733289040625095,
        0.012420620769262314,
        0.9993429183959961
      ],
      "scale": [
        1.000001311302185,
        1.0000067949295044,
        0.999997615814209
      ],
      "translation": [
        0.0,
        1.6193000078201294,
        0.0
      ]
    },
    {
      "children": [
        12
      ],
      "name": "front_shin.L_Armature.001",
      "rotation": [
        -0.024337947368621826,
        -0.0012279108632355928,
        -0.00757243437692523,
        0.999674379825592
      ],
      "scale": [
        0.9999938607215881,
        0.9999992847442627,
        1.0000016689300537
      ],
      "translation": [
        0.0,
        0.9224900007247925,
        0.0
      ]
    },
    {
      "name": "front_foot.L_Armature.001",
      "rotation": [
        -0.5999355912208557,
        0.0064376904629170895,
        -0.004252110607922077,
        0.8000110983848572
      ],
      "scale": [
        0.999998927116394,
        0.999994158744812,
        1.0000054836273193
      ],
      "translation": [
        0.0,
        0.47262001037597656,
        0.0
      ]
    },
    {
      "children": [
        14
      ],
      "name": "back_thigh.L_Armature.001",
      "rotation": [
        0.5815937519073486,
        -0.4006788730621338,
        0.5634588599205017,
        0.42862483859062195
      ],
      "scale": [
        0.9999996423721313,
        1.0000030994415283,
        0.999994158744812
      ],
      "translation": [
        -0.5453000068664551,
        -1.4990899562835693,
        0.8295599818229675
      ]
    },
    {
      "children": [
        15
      ],
      "name": "back_leg.L_Armature.001",
      "rotation": [
        -0.22716167569160461,
        -0.006463250145316124,
        0.023160254582762718,
        0.9735602736473083
      ],
      "scale": [
        0.999993622303009,
        0.9999979138374329,
        1.000000238418579
      ],
      "translation": [
        0.0,
        1.5208300352096558,
        0.0
      ]
    },
    {
      "children": [
        16
      ],
      "name": "back_shin.L_Armature.001",
      "rotation": [
        -0.08885269612073898,
        -0.001940266345627606,
        0.009093781933188438,
        0.9960014820098877
      ],
      "scale": [
        1.0000030994415283,
        1.0000050067901611,
        0.9999969601631165
      ],
      "translation": [
        0.0,
        1.0460200309753418,
        0.0
      ]
    },
    {
      "name": "back_foot.L_Armature.001",
      "rotation": [
        -0.4907783567905426,
        0.0241220835596323,
        -0.022858675569295883,
        0.8706504702568054
      ],
      "scale": [
        0.9999971985816956,
        1.0000063180923462,
        1.000000238418579
      ],
      "translation": [
        0.0,
        0.5327100157737732,
        0.0
      ]
    },
    {
      "children": [
        18
      ],
      "name": "front_thigh.R_Armature.001",
      "rotation": [
        0.45174354314804077,
        -0.5442081689834595,
        0.47457143664360046,
        0.5239725112915039
      ],
      "scale": [
        1.0000015497207642,
        0.999999463558197,
        0.9999960064888
      ],
      "translation": [
        -0.4643400013446808,
        1.8676400184631348,
        -0.8272799849510193
      ]
    },
    {
      "children": [
        19
      ],
      "name": "front_leg.R_Armature.001",
      "rotation": [
        0.034029796719551086,
        -0.0012733289040625095,
        -0.012420620769262314,
        0.9993429183959961
      ],
      "scale": [
        1.000001311302185,
        1.0000067949295044,
        0.999997615814209
      ],
      "translation": [
        0.0,
        1.6193000078201294,
        0.0
      ]
    },
    {
      "children": [
        20
      ],
      "name": "front_shin.R_Armature.001",
      "rotation": [
        -0.024337947368621826,
        0.0012279108632355928,
        0.00757243437692523,
        0.999674379825592
      ],
      "scale": [
        0.9999938607215881,
        0.9999992847442627,
        1.0000016689300537
      ],
      "translation": [
        0.0,
        0.9224900007247925,
        0.0
      ]
    },
    {
      "name": "front_foot.R_Armature.001",
      "rotation": [
        -0.5999355912208557,
        -0.0064376904629170895,
        0.004252110607922077,
        0.8000110983848572
      ],
      "scale": [
        0.999998927116394,
        0.999994158744812,
        1.0000054836273193
      ],
      "translation": [
        0.0,
        0.47262001037597656,
        0.0
      ]
    },
    {
      "children": [
        22
      ],
      "name": "back_thigh.R_Armature.001",
      "rotation": [
        0.5634598135948181,
        -0.4286234378814697,
        0.5815947651863098,
        0.40067756175994873
      ],
      "scale": [
        0.999999463558197,
        1.0000026226043701,
        0.9999979734420776
      ],
      "translation": [
        -0.5453000068664551,
        -1.4990899562835693,
        -0.8295599818229675
      ]
    },
    {
      "children": [
        23
      ],
      "name": "back_leg.R_Armature.001",
      "rotation": [
        -0.22716167569160461,
        0.006463250145316124,
        -0.023160254582762718,
        0.9735602736473083
      ],
      "scale": [
        0.999993622303009,
        0.9999979138374329,
        1.000000238418579
      ],
      "translation": [
        0.0,
        1.5208300352096558,
        0.0
      ]
    },
    {
      "children": [
        24
      ],
      "name": "back_shin.R_Armature.001",
      "rotation": [
        -0.08885269612073898,
        0.001940266345627606,
        -0.009093781933188438,
        0.9960014820098877
      ],
      "scale": [
        1.0000030994415283,
        1.0000050067901611,
        0.9999969601631165
      ],
      "translation": [
        0.0,
        1.0460200309753418,
        0.0
      ]
    },
    {
      "name": "back_foot.R_Armature.001",
      "rotation": [
        -0.4907783567905426,
        -0.0241220835596323,
        0.022858675569295883,
        0.8706504702568054
      ],
      "scale": [
        0.9999971985816956,
        1.0000063180923462,
        1.000000238418579
      ],
      "translation": [
        0.0,
        0.5327100157737732,
        0.0
      ]
    },
    {
      "children": [
        26
      ],
      "name": "tail_bone_Armature.001",
      "rotation": [
        0.6736536622047424,
        -0.21492047607898712,
        0.6736536622047424,
        0.21492047607898712
      ],
      "scale": [
        1.0,
        1.0000039339065552,
        1.0000039339065552
      ],
      "translation": [
        0.6830199956893921,
        -2.313620090484619,
        0.0
      ]
    },
    {
      "children": [
        27
      ],
      "name": "tail1_Armature.001",
      "rotation": [
        -0.16780495643615723,
        0.0,
        0.0,
        0.9858202338218689
      ],
      "scale": [
        1.0,
        0.9999968409538269,
        0.9999968409538269
      ],
      "translation": [
        0.0,
        0.5472000241279602,
        0.0
      ]
    },
    {
      "children": [
        28
      ],
      "name": "tail2_Armature.001",
      "rotation": [
        -0.12555384635925293,
        0.0,
        0.0,
        0.9920868277549744
      ],
      "scale": [
        1.0,
        0.9999974370002747,
        0.9999974370002747
      ],
      "translation": [
        0.0,
        0.27046999335289,
        0.0
      ]
    },
    {
      "children": [
        29
      ],
      "name": "tail3_Armature.001",
      "rotation": [
        -0.0291524026542902,
        0.0,
        0.0,
        0.9995750784873962
      ],
      "scale": [
        1.0,
        0.9999997019767761,
        0.9999997019767761
      ],
      "translation": [
        0.0,
        0.29335999488830566,
        0.0
      ]
    },
    {
      "children": [
        30
      ],
      "name": "tail4_Armature.001",
      "rotation": [
        0.008460275828838348,
        0.0,
        0.0,
        0.9999642372131348
      ],
      "scale": [
        1.0,
        1.0000030994415283,
        1.0000030994415283
      ],
      "translation": [
        0.0,
        0.35885000228881836,
        0.0
      ]
    },
    {
      "children": [
        31
      ],
      "name": "tail5_Armature.001",
      "rotation": [
        0.007410205900669098,
        0.0,
        0.0,
        0.9999726414680481
      ],
      "scale": [
        1.0,
        0.9999998211860657,
        0.9999998211860657
      ],
      "translation": [
        0.0,
        0.3307799994945526,
        0.0
      ]
    },
    {
      "name": "tail_end_Armature.001",
      "rotation": [
        0.16465210914611816,
        0.0,
        0.0,
        0.986351728439331
      ],
      "scale": [
        1.0,
        1.0000007152557373,
        1.0000007152557373
      ],
      "translation": [
        0.0,
        0.3140999972820282,
        0.0
      ]
    },
    {
      "name": "tail_ik.target_Armature.001",
      "rotation": [
        -0.010925665497779846,
        0.0,
        0.0,
        0.9999403357505798
      ],
      "scale": [
        1.0,
        0.9999987483024597,
        0.9999987483024597
      ],
      "translation": [
        0.0,
        4.343609809875488,
        2.6092000007629395
      ]
    },
    {
      "name": "front_ik.pole.L_Armature.001",
      "rotation": [
        0.0,
        0.012445841915905476,
        0.9999225735664368,
        0.0
      ],
      "scale": [
        1.0,
        0.9999998211860657,
        1.0000197887420654
      ],
      "translation": [
        0.9310799837112427,
        -2.4168999195098877,
        0.8028299808502197
      ]
    },
    {
      "children": [
        35
      ],
      "name": "front_control.L_Armature.001",
      "rotation": [
        0.9995598196983337,
        0.0,
        0.0,
        -0.029667900875210762
      ],
      "scale": [
        1.0,
        1.0000003576278687,
        1.000010371208191
      ],
      "translation": [
        0.932129979133606,
        -1.0819200277328491,
        0.033900000154972076
      ]
    },
    {
      "name": "front_ik.target.L_Armature.001",
      "rotation": [
        0.9964677691459656,
        0.0,
        0.0,
        0.08397628366947174
      ],
      "scale": [
        1.0,
        1.0000040531158447,
        1.0000040531158447
      ],
      "translation": [
        -0.0022899999748915434,
        0.07977999746799469,
        -0.0946199968457222
      ]
    },
    {
      "name": "back_ik.pole.L_Armature.001",
      "rotation": [
        0.0,
        0.0,
        1.0,
        0.0
      ],
      "scale": [
        1.0,
        1.0,
        1.0
      ],
      "translation": [
        0.8999999761581421,
        1.6205500364303589,
        0.635699987411499
      ]
    },
    {
      "name": "front_ik.pole.R_Armature.001",
      "rotation": [
        0.0,
        0.012445841915905476,
        0.9999225735664368,
        0.0
      ],
      "scale": [
        1.0,
        0.9999998211860657,
        1.0000197887420654
      ],
      "translation": [
        -0.9310799837112427,
        -2.4168999195098877,
        0.8028299808502197
      ]
    },
    {
      "children": [
        39
      ],
      "name": "front_control.R_Armature.001",
      "rotation": [
        0.9995598196983337,
        0.0,
        0.0,
        -0.029667900875210762
      ],
      "scale": [
        1.0,
        1.0000003576278687,
        1.000010371208191
      ],
      "translation": [
        -0.932129979133606,
        -1.0819200277328491,
        0.033900000154972076
      ]
    },
    {
      "name": "front_ik.target.R_Armature.001",
      "rotation": [
        0.9964677691459656,
        0.0,
        0.0,
        0.08397628366947174
      ],
      "scale": [
        1.0,
        1.0000040531158447,
        1.0000040531158447
      ],
      "translation": [
        0.0022899999748915434,
        0.07977999746799469,
        -0.0946199968457222
      ]
    },
    {
      "children": [
        41
      ],
      "name": "back_control.L_Armature.001",
      "rotation": [
        0.9997633099555969,
        0.0,
        -4.998949862056179e-06,
        -0.02175576612353325
      ],
      "scale": [
        1.0,
        0.9999966025352478,
        0.9999465942382813
      ],
      "translation": [
        0.8960400223731995,
        2.8356199264526367,
        0.03691999986767769
      ]
    },
    {
      "name": "back_ik.target.L_Armature.001",
      "rotation": [
        0.9976041913032532,
        0.0,
        -4.987991360394517e-06,
        0.06918026506900787
      ],
      "scale": [
        0.9999997615814209,
        1.000002145767212,
        1.000011920928955
      ],
      "translation": [
        -0.006049999967217445,
        0.11720000207424164,
        -0.09499000012874603
      ]
    },
    {
      "name": "back_ik.pole.R_Armature.001",
      "rotation": [
        0.0,
        0.0,
        1.0,
        0.0
      ],
      "scale": [
        1.0,
        1.0,
        1.0
      ],
      "translation": [
        -0.8999999761581421,
        1.6205500364303589,
        0.635699987411499
      ]
    },
    {
      "children": [
        44
      ],
      "name": "back_control.R_Armature.001",
      "rotation": [
        0.9997633099555969,
        0.0,
        4.998949862056179e-06,
        -0.02175576612353325
      ],
      "scale": [
        1.0,
        0.9999966025352478,
        0.9999465942382813
      ],
      "translation": [
        -0.8960400223731995,
        2.8356199264526367,
        0.03691999986767769
      ]
    },
    {
      "name": "back_ik.target.R_Armature.001",
      "rotation": [
        0.9976041913032532,
        0.0,
        4.987991360394517e-06,
        0.06918026506900787
      ],
      "scale": [
        0.9999997615814209,
        1.000002145767212,
        1.000011920928955
      ],
      "translation": [
        0.006049999967217445,
        0.11720000207424164,
        -0.09499000012874603
      ]
    },
    {
      "name": "Body",
      "translation": [
        0.0,
        0.6831099987030029,
        3.6638500690460205
      ]
    },
    {
      "mesh": 0,
      "name": "Body_0",
      "skin": 0
    },
    {
      "mesh": 1,
      "name": "Body_1",
      "skin": 0
    },
    {
      "mesh": 2,
      "name": "Body_2",
      "skin": 0
    },
    {
      "mesh": 3,
      "name": "Body_3",
      "skin": 0
    },
    {
      "mesh": 4,
      "name": "Body_4",
      "skin": 0
    }
  ],
  "scene": 0,
  "scenes": [
    {
      "name": "Sketchfab_Scene",
      "nodes": [
        0
      ]
    }
  ],
  "skins": [
    {
      "inverseBindMatrices": 15,
      "joints": [
        3,
        4,
        5,
        6,
        7,
        8,
        9,
        10,
        11,
        12,
        13,
        14,
        15,
        16,
        17,
        18,
        19,
        20,
        21,
        22,
        23,
        24,
        25,
        26,
        27,
        28,
        29,
        30,
        31,
        32,
        33,
        34,
        35,
        36,
        37,
        38,
        39,
        40,
        41,
        42,
        43,
        44
      ],
      "skeleton": 3
    }
  ]
}
