{
  "accessors": [
    {
      "bufferView": 2,
      "componentType": 5126,
      "count": 3931,
      "max": [
        28.726909637451172,
        108.82559967041016,
        0.8695622682571411
      ],
      "min": [
        -32.726539611816406,
        -135.46932983398438,
        -109.85613250732422
      ],
      "type": "VEC3"
    },
    {
      "bufferView": 2,
      "byteOffset": 47172,
      "componentType": 5126,
      "count": 3931,
      "max": [
        0.999753475189209,
        0.9991242289543152,
        0.9999237656593323
      ],
      "min": [
        -0.9998314380645752,
        -0.9995024800300598,
        -0.999110996723175
      ],
      "type": "VEC3"
    },
    {
      "bufferView": 3,
      "componentType": 5126,
      "count": 3931,
      "max": [
        0.9999130368232727,
        0.9991146922111511,
        0.9999083280563354,
        1.0
      ],
      "min": [
        -0.9997370839118958,
        -0.9997656345367432,
        -0.9999047517776489,
        -1.0
      ],
      "type": "VEC4"
    },
    {
      "bufferView": 1,
      "componentType": 5126,
      "count": 3931,
      "max": [
        0.9904800057411194,
        0.9932600259780884
      ],
      "min": [
        0.009340000338852406,
        0.006649971008300781
      ],
      "type": "VEC2"
    },
    {
      "bufferView": 1,
      "byteOffset": 31448,
      "componentType": 5126,
      "count": 3931,
      "max": [
        0.9904800057411194,
        0.9932600259780884
      ],
      "min": [
        0.009340000338852406,
        0.006649971008300781
      ],
      "type": "VEC2"
    },
    {
      "bufferView": 0,
      "componentType": 5125,
      "count": 18750,
      "type": "SCALAR"
    }
  ],
  "asset": {
    "extras": {
      "author": "hendrikReyneke (https://sketchfab.com/hendrikReyneke)",
      "license": "CC-BY-4.0 (http://creativecommons.org/licenses/by/4.0/)",
      "source": "https://sketchfab.com/3d-models/leopard-0aa47cb5f29647c3964480ec9216468a",
      "title": "Leopard"
    },
    "generator": "Sketchfab-12.68.0",
    "version": "2.0"
  },
  "bufferViews": [
    {
      "buffer": 0,
      "byteLength": 75000,
      "name": "floatBufferViews",
      "target": 34963
    },
    {
      "buffer": 0,
      "byteLength": 62896,
      "byteOffset": 75000,
      "byteStride": 8,
      "name": "floatBufferViews",
      "target": 34962
    },
    {
      "buffer": 0,
      "byteLength": 94344,
      "byteOffset": 137896,
      "byteStride": 12,
      "name": "floatBufferViews",
      "target": 34962
    },
    {
      "buffer": 0,
      "byteLength": 62896,
      "byteOffset": 232240,
      "byteStride": 16,
      "name": "floatBufferViews",
      "target": 34962
    }
  ],
  "buffers": [
    {
      "byteLength": 295136,
      "uri": "scene.bin"
    }
  ],
  "images": [
    {
      "uri": "textures/leopard_Material_baseColor.png"
    },
    {
      "uri": "textures/leopard_Material_normal.png"
    }
  ],
  "materials": [
    {
      "doubleSided": true,
      "name": "leopard_Material",
      "normalTexture": {
        "index": 1
      },
      "pbrMetallicRoughness": {
        "baseColorTexture": {
          "index": 0
        },
        "metallicFactor": 0.5,
        "roughnessFactor": 0.970968
      }
    }
  ],
  "meshes": [
    {
      "name": "Object_0",
      "primitives": [
        {
          "attributes": {
            "NORMAL": 1,
            "POSITION": 0,
            "TANGENT": 2,
            "TEXCOORD_0": 3,
            "TEXCOORD_1": 4
          },
          "indices": 5,
          "material": 0,
          "mode": 4
        }
      ]
    }
  ],
  "nodes": [
    {
      "children": [
        1
      ],
      "matrix": [
        1.0,
        0.0,
        0.0,
        0.0,
        0.0,
        2.220446049250313e-16,
        -1.0,
        0.0,
        0.0,
        1.0,
        2.220446049250313e-16,
        0.0,
        0.0,
        0.0,
        0.0,
        1.0
      ],
      "name": "Sketchfab_model"
    },
    {
      "children": [
        2
      ],
      "name": "root"
    },
    {
      "children": [
        3
      ],
      "matrix": [
        1.0,
        0.0,
        0.0,
        0.0,
        0.0,
        2.220446049250313e-16,
        1.0,
        0.0,
        0.0,
        -1.0,
        2.220446049250313e-16,
        0.0,
        0.0,
        0.0,
        0.0,
        1.0
      ],
      "name": "GLTF_SceneRootNode"
    },
    {
      "children": [
        4
      ],
      "matrix": [
        0.0010000000474974513,
        0.0,
        0.0,
        0.0,
        0.0,
        0.0,
        0.0010000000474974513,
        0.0,
        0.0,
        -0.0010000000474974513,
        0.0,
        0.0,
        0.0,
        0.0,
        0.0,
        1.0
      ],
      "name": "Cats_Leopard_hp_0"
    },
    {
      "mesh": 0,
      "name": "Object_4"
    }
  ],
  "samplers": [
    {
      "magFilter": 9729,
      "minFilter": 9987,
      "wrapS": 10497,
      "wrapT": 10497
    }
  ],
  "scene": 0,
  "scenes": [
    {
      "name": "Sketchfab_Scene",
      "nodes": [
        0
      ]
    }
  ],
  "textures": [
    {
      "sampler": 0,
      "source": 0
    },
    {
      "sampler": 0,
      "source": 1
    }
  ]
}
