{
  "accessors": [
    {
      "bufferView": 2,
      "componentType": 5126,
      "count": 23356,
      "max": [
        0.9948340058326721,
        0.585328996181488,
        0.4754219949245453
      ],
      "min": [
        -0.9998599886894226,
        -0.608771026134491,
        -0.48344001173973083
      ],
      "type": "VEC3"
    },
    {
      "bufferView": 2,
      "byteOffset": 280272,
      "componentType": 5126,
      "count": 23356,
      "max": [
        0.9995995759963989,
        1.0,
        0.9999999403953552
      ],
      "min": [
        -0.9998617768287659,
        -0.999829888343811,
        -0.9999977946281433
      ],
      "type": "VEC3"
    },
    {
      "bufferView": 1,
      "componentType": 5126,
      "count": 23356,
      "max": [
        0.9995700120925903,
        0.9995629787445068
      ],
      "min": [
        0.0,
        0.0
      ],
      "type": "VEC2"
    },
    {
      "bufferView": 0,
      "componentType": 5125,
      "count": 119994,
      "type": "SCALAR"
    }
  ],
  "asset": {
    "extras": {
      "author": "pengembaraabadi (https://sketchfab.com/pengembaraabadi)",
      "license": "CC-BY-4.0 (http://creativecommons.org/licenses/by/4.0/)",
      "source": "https://sketchfab.com/3d-models/gajah-sumatra-1649e07e7f184642a56bad240dfe2347",
      "title": "gajah sumatra"
    },
    "generator": "Sketchfab-17.3.0",
    "version": "2.0"
  },
  "bufferViews": [
    {
      "buffer": 0,
      "byteLength": 479976,
      "name": "floatBufferViews",
      "target": 34963
    },
    {
      "buffer": 0,
      "byteLength": 186848,
      "byteOffset": 479976,
      "byteStride": 8,
      "name": "floatBufferViews",
      "target": 34962
    },
    {
      "buffer": 0,
      "byteLength": 560544,
      "byteOffset": 666824,
      "byteStride": 12,
      "name": "floatBufferViews",
      "target": 34962
    }
  ],
  "buffers": [
    {
      "byteLength": 1227368,
      "uri": "scene.bin"
    }
  ],
  "images": [
    {
      "uri": "textures/Material.005_baseColor.jpeg"
    }
  ],
  "materials": [
    {
      "doubleSided": true,
      "name": "Material.005",
      "pbrMetallicRoughness": {
        "baseColorTexture": {
          "index": 0
        },
        "metallicFactor": 0.0,
        "roughnessFactor": 0.8211145618000169
      }
    }
  ],
  "meshes": [
    {
      "name": "textured_mesh_Material.005_0",
      "primitives": [
        {
          "attributes": {
            "NORMAL": 1,
            "POSITION": 0,
            "TEXCOORD_0": 2
          },
          "indices": 3,
          "material": 0,
          "mode": 4
        }
      ]
    }
  ],
  "nodes": [
    {
      "children": [
        1
      ],
      "matrix": [
        1.0,
        0.0,
        0.0,
        0.0,
        0.0,
        2.220446049250313e-16,
        -1.0,
        0.0,
        0.0,
        1.0,
        2.220446049250313e-16,
        0.0,
        0.0,
        0.0,
        0.0,
        1.0
      ],
      "name": "Sketchfab_model"
    },
    {
      "children": [
        2
      ],
      "matrix": [
        0.009999999776482582,
        0.0,
        0.0,
        0.0,
        0.0,
        0.0,
        0.009999999776482582,
        0.0,
        0.0,
        -0.009999999776482582,
        0.0,
        0.0,
        0.0,
        0.0,
        0.0,
        1.0
      ],
      "name": "7a0b63850e274302a3008eaf51ed33de.fbx"
    },
    {
      "children": [
        3
      ],
      "name": "RootNode"
    },
    {
      "children": [
        4
      ],
      "matrix": [
        100.0,
        0.0,
        0.0,
        0.0,
        0.0,
        100.00001525878817,
        1.3435886277572791e-05,
        0.0,
        0.0,
        -1.3435886277572791e-05,
        100.00001525878817,
        0.0,
        0.0,
        0.0,
        0.0,
        1.0
      ],
      "name": "textured_mesh"
    },
    {
      "mesh": 0,
      "name": "textured_mesh_Material.005_0"
    }
  ],
  "samplers": [
    {
      "magFilter": 9729,
      "minFilter": 9987,
      "wrapS": 10497,
      "wrapT": 10497
    }
  ],
  "scene": 0,
  "scenes": [
    {
      "name": "Sketchfab_Scene",
      "nodes": [
        0
      ]
    }
  ],
  "textures": [
    {
      "sampler": 0,
      "source": 0
    }
  ]
}
